<svg width="24" height="26" viewBox="0 0 24 26" fill="none" xmlns="http://www.w3.org/2000/svg">
<path d="M12.87 16.0788L10.33 13.5171L10.36 13.4865C12.1 11.5066 13.34 9.23067 14.07 6.8221H17V4.78094H10V2.73978H8V4.78094H1V6.81189H12.17C11.5 8.78161 10.44 10.6493 9 12.2822C8.07 11.231 7.3 10.0777 6.69 8.86326H4.69C5.42 10.5268 6.42 12.0985 7.67 13.5171L2.58 18.6404L4 20.0896L9 14.9867L12.11 18.1607L12.87 16.0788ZM18.5 10.9044H16.5L12 23.1514H14L15.12 20.0896H19.87L21 23.1514H23L18.5 10.9044ZM15.88 18.0485L17.5 13.6294L19.12 18.0485H15.88Z" fill="url(#paint0_linear_227_120)"/>
<defs>
<linearGradient id="paint0_linear_227_120" x1="12" y1="2.73978" x2="12" y2="23.1514" gradientUnits="userSpaceOnUse">
<stop stop-color="#69E1F1"/>
<stop offset="1" stop-color="#113AA3"/>
</linearGradient>
</defs>
</svg>
