<svg width="168" height="38" viewBox="0 0 168 38" fill="none" xmlns="http://www.w3.org/2000/svg">
<path d="M0.671875 33.832H3.07188L13.4879 3.49599H20.1119L30.5279 33.832H32.9279V37H18.8639V33.832H22.7039L20.3999 26.776H9.45588L7.15188 33.832H10.9919V37H0.671875V33.832ZM10.4159 23.464H19.5359L15.0239 9.35198H14.8319L10.4159 23.464Z" fill="#1F1F1F"/>
<path d="M35.3384 33.832H38.2184V16.696L35.3384 16.072V13.336L45.3704 11.272V16.024H45.6104C46.0584 14.744 46.8584 13.64 48.0104 12.712C49.1624 11.752 50.7464 11.272 52.7624 11.272C55.8344 11.272 57.9944 12.056 59.2424 13.624C60.5224 15.16 61.1624 17.48 61.1624 20.584V33.832H64.0424V37H51.2264V33.832H53.8664V20.824C53.8664 19.128 53.5624 17.928 52.9544 17.224C52.3784 16.488 51.3864 16.12 49.9784 16.12C49.4344 16.12 48.8904 16.2 48.3464 16.36C47.8024 16.488 47.3224 16.712 46.9064 17.032C46.4904 17.32 46.1544 17.704 45.8984 18.184C45.6424 18.632 45.5144 19.192 45.5144 19.864V33.832H48.1544V37H35.3384V33.832Z" fill="#1F1F1F"/>
<path d="M67.3116 33.832H70.6716V6.66399H67.3116V3.49599H82.9596C85.2636 3.49599 87.3916 3.87999 89.3436 4.64799C91.3276 5.38399 93.0396 6.47199 94.4796 7.91199C95.9196 9.31999 97.0396 11.064 97.8396 13.144C98.6716 15.224 99.0876 17.592 99.0876 20.248C99.0876 22.904 98.6716 25.272 97.8396 27.352C97.0396 29.432 95.9196 31.192 94.4796 32.632C93.0396 34.04 91.3276 35.128 89.3436 35.896C87.3916 36.632 85.2636 37 82.9596 37H67.3116V33.832ZM78.4476 33.544H81.5676C83.1676 33.544 84.5276 33.384 85.6476 33.064C86.7996 32.744 87.7276 32.248 88.4316 31.576C89.1676 30.872 89.6956 29.96 90.0156 28.84C90.3676 27.688 90.5436 26.296 90.5436 24.664V15.832C90.5436 14.2 90.3676 12.824 90.0156 11.704C89.6956 10.552 89.1676 9.63999 88.4316 8.96798C87.7276 8.26399 86.7996 7.75199 85.6476 7.43198C84.5276 7.11198 83.1676 6.95198 81.5676 6.95198H78.4476V33.544Z" fill="#1F1F1F"/>
<path d="M103.354 33.832H106.234V16.696L103.354 16.072V13.336L113.386 11.272V16.024H113.578C114.026 14.68 114.746 13.56 115.738 12.664C116.73 11.736 118.026 11.272 119.626 11.272C121.194 11.272 122.426 11.704 123.322 12.568C124.218 13.4 124.666 14.552 124.666 16.024C124.666 17.304 124.33 18.312 123.658 19.048C122.986 19.784 122.042 20.152 120.826 20.152C119.674 20.152 118.794 19.848 118.186 19.24C117.578 18.6 117.274 17.848 117.274 16.984C117.274 16.6 117.354 16.248 117.514 15.928C117.674 15.608 117.866 15.4 118.09 15.304L118.042 15.064C117.946 15.032 117.802 15.016 117.61 15.016C117.098 15.016 116.602 15.16 116.122 15.448C115.642 15.736 115.21 16.104 114.826 16.552C114.442 17 114.122 17.496 113.866 18.04C113.642 18.584 113.53 19.112 113.53 19.624V33.832H117.37V37H103.354V33.832Z" fill="#1F1F1F"/>
<path d="M139.362 37.576C137.378 37.576 135.618 37.256 134.082 36.616C132.578 35.944 131.298 35.032 130.242 33.88C129.218 32.696 128.434 31.304 127.89 29.704C127.346 28.072 127.074 26.296 127.074 24.376C127.074 22.36 127.346 20.536 127.89 18.904C128.466 17.272 129.266 15.896 130.29 14.776C131.346 13.656 132.594 12.792 134.034 12.184C135.506 11.576 137.138 11.272 138.93 11.272C140.722 11.272 142.338 11.544 143.778 12.088C145.218 12.632 146.434 13.416 147.426 14.44C148.45 15.432 149.234 16.648 149.778 18.088C150.322 19.528 150.594 21.128 150.594 22.888V24.52H134.802V26.44C134.802 28.584 135.362 30.2 136.482 31.288C137.602 32.376 139.09 32.92 140.946 32.92C142.674 32.92 144.066 32.536 145.122 31.768C146.178 30.968 146.93 30.008 147.378 28.888L150.018 30.472C149.73 31.272 149.314 32.088 148.77 32.92C148.226 33.752 147.522 34.52 146.658 35.224C145.794 35.896 144.754 36.456 143.538 36.904C142.322 37.352 140.93 37.576 139.362 37.576ZM134.802 21.496H143.058V20.824C143.058 18.52 142.69 16.904 141.954 15.976C141.218 15.048 140.21 14.584 138.93 14.584C137.65 14.584 136.642 15.048 135.906 15.976C135.17 16.904 134.802 18.52 134.802 20.824V21.496Z" fill="#1F1F1F"/>
<path d="M160.693 8.53598C159.349 8.53598 158.293 8.16798 157.525 7.43198C156.789 6.69598 156.421 5.70398 156.421 4.45599V4.21599C156.421 2.96798 156.789 1.97598 157.525 1.23998C158.293 0.503985 159.349 0.135986 160.693 0.135986C162.037 0.135986 163.077 0.503985 163.813 1.23998C164.581 1.97598 164.965 2.96798 164.965 4.21599V4.45599C164.965 5.70398 164.581 6.69598 163.813 7.43198C163.077 8.16798 162.037 8.53598 160.693 8.53598ZM154.213 33.832H157.093V16.696L154.213 16.072V13.336L164.389 11.272V33.832H167.269V37H154.213V33.832Z" fill="#1F1F1F"/>
</svg>
