<svg width="24" height="25" viewBox="0 0 24 25" fill="none" xmlns="http://www.w3.org/2000/svg">
<g clip-path="url(#clip0_227_106)">
<path d="M17.5 4.79803C15.55 4.79803 13.45 5.20627 12 6.3289C10.55 5.20627 8.45 4.79803 6.5 4.79803C5.05 4.79803 3.51 5.02256 2.22 5.60429C1.49 5.94108 1 6.6657 1 7.49237V19.0045C1 20.3313 2.22 21.311 3.48 20.9844C4.46 20.7293 5.5 20.617 6.5 20.617C8.06 20.617 9.72 20.8824 11.06 21.556C11.66 21.8621 12.34 21.8621 12.93 21.556C14.27 20.8722 15.93 20.617 17.49 20.617C18.49 20.617 19.53 20.7293 20.51 20.9844C21.77 21.3212 22.99 20.3415 22.99 19.0045V7.49237C22.99 6.6657 22.5 5.94108 21.77 5.60429C20.49 5.02256 18.95 4.79803 17.5 4.79803ZM21 17.79C21 18.433 20.42 18.9025 19.8 18.7902C19.05 18.6473 18.27 18.5861 17.5 18.5861C15.8 18.5861 13.35 19.2494 12 20.1169V8.37006C13.35 7.50257 15.8 6.83919 17.5 6.83919C18.42 6.83919 19.33 6.93105 20.2 7.12496C20.66 7.22702 21 7.64545 21 8.12513V17.79Z" fill="url(#paint0_linear_227_106)"/>
<path d="M13.9799 11.442C13.6599 11.442 13.3699 11.2379 13.2699 10.9113C13.1399 10.5133 13.3599 10.0744 13.7499 9.95196C15.2899 9.44167 17.2799 9.27838 19.1099 9.4927C19.5199 9.54373 19.8199 9.92134 19.7699 10.3398C19.7199 10.7582 19.3499 11.0644 18.9399 11.0134C17.3199 10.8195 15.5499 10.9725 14.2099 11.4114C14.1299 11.4216 14.0499 11.442 13.9799 11.442Z" fill="url(#paint1_linear_227_106)"/>
<path d="M13.9799 14.1567C13.6599 14.1567 13.3699 13.9526 13.2699 13.626C13.1399 13.228 13.3599 12.7892 13.7499 12.6667C15.2799 12.1564 17.2799 11.9931 19.1099 12.2074C19.5199 12.2585 19.8199 12.6361 19.7699 13.0545C19.7199 13.4729 19.3499 13.7791 18.9399 13.7281C17.3199 13.5342 15.5499 13.6873 14.2099 14.1261C14.1299 14.1465 14.0499 14.1567 13.9799 14.1567Z" fill="url(#paint2_linear_227_106)"/>
<path d="M13.9799 16.8715C13.6599 16.8715 13.3699 16.6674 13.2699 16.3408C13.1399 15.9428 13.3599 15.5039 13.7499 15.3815C15.2799 14.8712 17.2799 14.7079 19.1099 14.9222C19.5199 14.9732 19.8199 15.3508 19.7699 15.7693C19.7199 16.1877 19.3499 16.4837 18.9399 16.4429C17.3199 16.249 15.5499 16.402 14.2099 16.8409C14.1299 16.8613 14.0499 16.8715 13.9799 16.8715Z" fill="url(#paint3_linear_227_106)"/>
</g>
<defs>
<linearGradient id="paint0_linear_227_106" x1="11.995" y1="4.79803" x2="11.995" y2="21.7856" gradientUnits="userSpaceOnUse">
<stop stop-color="#69E1F1"/>
<stop offset="1" stop-color="#113AA3"/>
</linearGradient>
<linearGradient id="paint1_linear_227_106" x1="16.5039" y1="9.40076" x2="16.5039" y2="11.442" gradientUnits="userSpaceOnUse">
<stop stop-color="#69E1F1"/>
<stop offset="1" stop-color="#113AA3"/>
</linearGradient>
<linearGradient id="paint2_linear_227_106" x1="16.5039" y1="12.1155" x2="16.5039" y2="14.1567" gradientUnits="userSpaceOnUse">
<stop stop-color="#69E1F1"/>
<stop offset="1" stop-color="#113AA3"/>
</linearGradient>
<linearGradient id="paint3_linear_227_106" x1="16.5039" y1="14.8303" x2="16.5039" y2="16.8715" gradientUnits="userSpaceOnUse">
<stop stop-color="#69E1F1"/>
<stop offset="1" stop-color="#113AA3"/>
</linearGradient>
<clipPath id="clip0_227_106">
<rect width="24" height="24.4939" fill="white" transform="translate(0 0.205444)"/>
</clipPath>
</defs>
</svg>
